/* XPM */
static char * dna_2_svgrepo_com_xpm[] = {
"24 24 2 1",
" 	c None",
".	c #000000",
"              .         ",
"              ..        ",
"             ..         ",
"            .. .        ",
"            .. ..       ",
"           ..   ..      ",
"           ..    ..     ",
"           .. .   ..    ",
"           .. ..   .. . ",
"           ..  ..   ....",
"           ..   .. ...  ",
"     ..... .. .......   ",
"   ....... .. .....     ",
"  ... ..   ..           ",
"....   ..  ..           ",
" . ..   .. ..           ",
"    ..   . ..           ",
"     ..    ..           ",
"      ..   ..           ",
"       .. ..            ",
"        . ..            ",
"         ..             ",
"        ..              ",
"         .              "};
