/* XPM */
static char * any_solvent_svgrepo_com_xpm[] = {
"24 24 2 1",
" 	c None",
".	c #000000",
"         ......         ",
"      ............      ",
"     ......  ......     ",
"    ....        ....    ",
"   ...            ...   ",
"  ...      ..      ...  ",
" ...       ..       ... ",
" ...      ....      ... ",
" ..       ....       .. ",
"...       ....       ...",
"...      ......      ...",
"..       ..  ..       ..",
"..       ..  ..       ..",
"...     ........     ...",
"...     ........     ...",
" ..     ........     .. ",
" ...    ..    ..    ... ",
" ...   ...    ...   ... ",
"  ...  ..      .   ...  ",
"   ...            ...   ",
"    ....        ....    ",
"     ......  ......     ",
"      ............      ",
"         ......         "};
