/* XPM */
static char * brain_xpm[] = {
"24 24 2 1",
" 	g None",
".	g #212121",
"                        ",
"                        ",
"         ..  ..         ",
"       ..........       ",
"      ..   ..   ..      ",
"      .    ..    .      ",
"    ...    ..    ...    ",
"    .  ... ..      .    ",
"    .  . ....      .    ",
"    .  ... .. ...  .    ",
"    .      .. . .  .    ",
"   .....   .. ...  ..   ",
"   .   ..  ..  .    .   ",
"  ..    .  ..  .    ..  ",
"  ..   ... ..  .    ..  ",
"   .   . . ..  .    .   ",
"   ..  ... ....    ..   ",
"    ..     ..     ..    ",
"     .     ..     .     ",
"     ..    ..    ..     ",
"      .....  .....      ",
"        ..    ..        ",
"                        ",
"                        "};
