/* XPM */
static char * dict_xpm[] = {
"24 24 257 2",
"  	c None",
". 	c #47704C",
"+ 	c #000000",
"@ 	c #1C0608",
"# 	c #921E36",
"$ 	c #000000",
"% 	c #000000",
"& 	c #000000",
"* 	c #010000",
"= 	c #000000",
"- 	c #090202",
"; 	c #8F3C56",
"> 	c #B93338",
", 	c #551317",
"' 	c #932039",
") 	c #921C31",
"! 	c #A6252E",
"~ 	c #000000",
"{ 	c #BF4147",
"] 	c #AF282D",
"^ 	c #B82C2C",
"/ 	c #BB2D2B",
"( 	c #831730",
"_ 	c #821C3B",
": 	c #000000",
"< 	c #A2283C",
"[ 	c #AB262E",
"} 	c #E5E5E5",
"| 	c #7D1536",
"1 	c #AF282E",
"2 	c #B2292D",
"3 	c #C8322A",
"4 	c #D93B2A",
"5 	c #D9554F",
"6 	c #7E1B3B",
"7 	c #C7342D",
"8 	c #BE2E2C",
"9 	c #C8322B",
"0 	c #7F1736",
"a 	c #A5232F",
"b 	c #972644",
"c 	c #B52B2D",
"d 	c #A32230",
"e 	c #9F2231",
"f 	c #AE2D39",
"g 	c #851836",
"h 	c #CA352B",
"i 	c #CE3B33",
"j 	c #CD4742",
"k 	c #D63D2E",
"l 	c #A3222F",
"m 	c #96263B",
"n 	c #A12334",
"o 	c #BA2D2D",
"p 	c #D1392C",
"q 	c #641127",
"r 	c #BD2D2C",
"s 	c #D03529",
"t 	c #D5392A",
"u 	c #D8493B",
"v 	c #707070",
"w 	c #941C32",
"x 	c #A12230",
"y 	c #BD2F2D",
"z 	c #989898",
"A 	c #D0392D",
"B 	c #CDCDCD",
"C 	c #8B5A6A",
"D 	c #818181",
"E 	c #CCBAC1",
"F 	c #EEEEEE",
"G 	c #E7E7E8",
"H 	c #ECECEC",
"I 	c #AE1F38",
"J 	c #B22036",
"K 	c #B72134",
"L 	c #C12430",
"M 	c #E5E5E5",
"N 	c #C4252F",
"O 	c #DA4A44",
"P 	c #DD5148",
"Q 	c #DE5349",
"R 	c #BF2431",
"S 	c #B01F37",
"T 	c #AB1E39",
"U 	c #AC1E38",
"V 	c #DC4F47",
"W 	c #DB4E46",
"X 	c #C6262E",
"Y 	c #C92B31",
"Z 	c #C22530",
"` 	c #A71D3B",
" .	c #E66754",
"..	c #D84742",
"+.	c #DF554A",
"@.	c #E0E0E1",
"#.	c #BB2332",
"$.	c #EAEAEB",
"%.	c #BA2233",
"&.	c #D33D3C",
"*.	c #E56453",
"=.	c #C7272F",
"-.	c #E25B4E",
";.	c #D94843",
">.	c #E76E58",
",.	c #DA4C45",
"'.	c #DBDBDB",
").	c #E2E2E3",
"!.	c #D23B3A",
"~.	c #CC3135",
"{.	c #CA2D32",
"].	c #C82930",
"^.	c #CB2F33",
"/.	c #E35D4F",
"(.	c #E6E6E7",
"_.	c #E66956",
":.	c #7A1235",
"<.	c #D5423F",
"[.	c #DDDDDD",
"}.	c #A91D3A",
"|.	c #D4403E",
"1.	c #CF3638",
"2.	c #E8705A",
"3.	c #7A1335",
"4.	c #D33F3D",
"5.	c #CE3537",
"6.	c #D64440",
"7.	c #DC3A27",
"8.	c #CD3336",
"9.	c #E0574B",
"0.	c #EDEDED",
"a.	c #E56252",
"b.	c #E46051",
"c.	c #A51C3B",
"d.	c #E9E9E9",
"e.	c #B62135",
"f.	c #DEDEDE",
"g.	c #E1594C",
"h.	c #A11B3D",
"i.	c #BD2332",
"j.	c #E45F50",
"k.	c #B42135",
"l.	c #E3E3E4",
"m.	c #E76C57",
"n.	c #A31B3C",
"o.	c #E9725B",
"p.	c #B82234",
"q.	c #EC7E61",
"r.	c #B32036",
"s.	c #DFDFE0",
"t.	c #E9745C",
"u.	c #E25A4D",
"v.	c #D03839",
"w.	c #9D1A3F",
"x.	c #EE8867",
"y.	c #EC8163",
"z.	c #EF8B69",
"A.	c #E0584C",
"B.	c #EA775E",
"C.	c #E9765D",
"D.	c #AC2B46",
"E.	c #E1E1E2",
"F.	c #E0E0E0",
"G.	c #EC8264",
"H.	c #EB7C60",
"I.	c #CE4A4E",
"J.	c #D0393A",
"K.	c #EB7B60",
"L.	c #D74541",
"M.	c #D9D9D9",
"N.	c #D65D5D",
"O.	c #EA795F",
"P.	c #971942",
"Q.	c #8F1A34",
"R.	c #A92A48",
"S.	c #9D264C",
"T.	c #CAAFB9",
"U.	c #EA7A5F",
"V.	c #F5BBA5",
"W.	c #ED8465",
"X.	c #9A1940",
"Y.	c #A4284A",
"Z.	c #9F1A3E",
"`.	c #BA3744",
" +	c #C7434B",
".+	c #BB8D9A",
"++	c #ED8666",
"@+	c #F1A496",
"#+	c #C1323A",
"$+	c #ED9B94",
"%+	c #D35759",
"&+	c #E2736D",
"*+	c #DE6661",
"=+	c #F2AA9C",
"-+	c #C45D67",
";+	c #DD6C68",
">+	c #D14646",
",+	c #C9373B",
"'+	c #DC6059",
")+	c #E1D4D7",
"!+	c #CDB3BC",
"~+	c #F5B6A3",
"{+	c #F4B1A0",
"]+	c #DFD9DB",
"^+	c #B72E3D",
"/+	c #B06B7B",
"(+	c #C14652",
"_+	c #E3807A",
":+	c #CC4041",
"<+	c #EA8D85",
"[+	c #D9D1D4",
"}+	c #AF354E",
"|+	c #D04F50",
"1+	c #D67A7B",
"2+	c #D9C0C3",
"3+	c #CEB7BF",
"4+	c #9B9799",
"5+	c #D25353",
"6+	c #D74E4A",
"7+	c #861937",
"8+	c #BABABA",
"9+	c #CFCFCF",
"0+	c #B14F5C",
"a+	c #C33A46",
"b+	c #EA795E",
"c+	c #D8A2A3",
"d+	c #EF957D",
"e+	c #E3BBBB",
"f+	c #B47F8F",
"g+	c #9C5067",
"h+	c #AD6071",
"i+	c #DC8A88",
"j+	c #A42542",
"k+	c #DD5851",
"l+	c #EC8977",
"m+	c #AE293E",
"n+	c #E4CECF",
"o+	c #D6C5CB",
"p+	c #8B314E",
"q+	c #C7C6C7",
"r+	c #AD4352",
"s+	c #E87C6E",
"t+	c #CD6066",
"u+	c #E5DDDD",
"v+	c #9B1F34",
"w+	c #927D84",
"x+	c #DA9A9B",
"y+	c #DAB3B5",
"z+	c #F09D88",
"A+	c #C7AAB4",
"B+	c #E4C4C4",
"C+	c #C49DA9",
"D+	c #AAAAAA",
"E+	c #B1B1B1",
"F+	c #7D7D7D",
"G+	c #9F3C51",
"H+	c #0003FF",
"      l+l+l+l+l+l+l+s+s+s+s+s+&+&+;+;+*+'+      ",
"      l+x.++++W.y.q.K.B.o.>._.*.b.-.9.Q '+      ",
"      x.q.q.q.K.O.B.t.2.>. .*.b.-.9.Q V k+      ",
"      q.C.C.t.t.2.2.>._. .a./.-.9.Q V ,.5       ",
"      2.>.>.m.m.*.*.*.a.j.-.g.+.Q V ,.;.5       ",
"       .*.*.a.a.2+c+/.-.g.9.Q P W O ..6.>+      ",
"      -.-.-.-.&+n+)+k++.Q V W ;...L.<.4.4.      ",
"    %++.+.+.+.c+&+)+i+W ,.N.!+c+y+i+&.!.v.      ",
"    5+W W W 5 y+,.y+2+....N.x+|.<.)+%+5.~.      ",
"    |+......i+x+I.t+).t+|.:+x+y+y+u+1+^.{.a+    ",
"    j |.|.|.y+c+c+c+)+c+J.c+n+:+~.n+1+].=.#+    ",
"    :+v.J.t+c+v.v.1.i+]+,+y+2+{.#+u+1+N Z >     ",
"    ,+~.I.!+T.I.~.~.c+n+A+%+B+!+c+B+y+(+#.^+    ",
"    #+Y Y Y Y Y ].].=.=.X N N L R R #.%.K f     ",
"    #+N N N N N N N Z L R R i.#.%.K e.r.S m+    ",
"    ^+R R R R i.i.#.#.%.%.p.e.k.r.J S U T j+    ",
"    J K K K K e.e.e.k.r.J J S I U T }.` c.h.    ",
"    I S S S S S S I I U T T }.}.c.c.h.h.Z.w.    ",
"    c.` }.` ` ` ` ` c.c.c.n.h.Z.Z.w.X.X.P.P.    ",
"    8+[+[+[+[+[+[+[+[+[+[+[+[+[+[+[+[+[+[+q+    ",
"    8+(.} } l.l.).).).E.E.).).l.l.} } (.(.[+    ",
"    E+$.$.$.$.$.d.d.d.d.d.d.d.d.$.$.$.$.H '.    ",
"      8+8+8+8+8+8+E+E+E+E+E+E+8+8+8+8+8+8+8+    ",
"                                                "};
