/* XPM */
static char * done_xpm[] = {
"24 24 18 1",
" 	c None",
".	c #47704C",
"+	c #303030",
"@	c #303030",
"#	c #303030",
"$	c #303030",
"%	c #303030",
"&	c #303030",
"*	c #303030",
"=	c #303030",
"-	c #303030",
";	c #303030",
">	c #303030",
",	c #303030",
"'	c #303030",
")	c #303030",
"!	c #303030",
"~	c #303030",
"                        ",
"                        ",
"                        ",
"                    +++ ",
"                   +++++",
"                  ++++++",
"                 +++++++",
"                ++++++++",
"               ++++++++ ",
" ++++         ++++++++  ",
"++++++       ++++++++   ",
"+++++++     ++++++++    ",
"++++++++   ++++++++     ",
" ++++++++ ++++++++      ",
"  +++++++++++++++       ",
"   +++++++++++++        ",
"    +++++++++++         ",
"     +++++++++          ",
"      +++++++           ",
"       +++++            ",
"        +++             ",
"                        ",
"                        ",
"                        "};
