/* XPM */
static char * journal_xpm[] = {
"24 24 32 1",
" 	c None",
".	c #47704C",
"+	c #000000",
"@	c #000000",
"#	c #000000",
"$	c #000000",
"%	c #000000",
"&	c #000000",
"*	c #000000",
"=	c #000000",
"-	c #000000",
";	c #000000",
">	c #000000",
",	c #000000",
"'	c #000000",
")	c #000000",
"!	c #000000",
"~	c #000000",
"{	c #000000",
"]	c #000000",
"^	c #000000",
"/	c #000000",
"(	c #000000",
"_	c #000000",
":	c #000000",
"<	c #000000",
"[	c #000000",
"}	c #000000",
"|	c #000000",
"1	c #000000",
"2	c #000000",
"3	c #000000",
"      +++++++++++++++   ",
"    ++              +   ",
"   ++++++++++++++++ +   ",
"   +       +   +  + +   ",
"   +       +   +  + +   ",
"   +       +   +  + +   ",
"   +       +   +  + +   ",
"   +       +   +  + +   ",
"   +       + + +  + +   ",
"   +       +++++  + +   ",
"   +       +   +  + +   ",
"   +              + +   ",
"   +              + +   ",
"   +              + +   ",
"   +              + +   ",
"   +              + +   ",
"   +              + +   ",
"   +              + +   ",
"   +              + +   ",
"   +              + +   ",
"   +              + +   ",
"   +              ++    ",
"   ++             ++    ",
"    +++++++++++++++     "};
