/* XPM */
static char * art_design_paint_pallet_format_text_svgrepo_com_xpm[] = {
"24 24 3 1",
" 	c None",
".	c #212121",
"+	c #222222",
"                        ",
"                        ",
"           ..           ",
"       .++.++.++.       ",
"     +.          .+     ",
"   .+     .++      ++   ",
"  .+ +.+  + +  .+   +.  ",
" +.  + .  ++. .+ +   .+ ",
" +   .+.       ++.    + ",
"+.    +         .     ..",
"+                 +..  .",
"+                 . ++ +",
".                 .++  +",
".+.++...               .",
"       ++       .     +.",
"         .     .+.    + ",
"         ..   .+ .   +. ",
"          .    .+   .+  ",
"          +        .+   ",
"          +      ++     ",
"          ..+..++       ",
"           +.           ",
"                        ",
"                        "};
