/* XPM */
static char * nov_xpm[] = {
"24 24 3 1",
" 	c None",
".	c #47704C",
"+	c #000000",
"                        ",
"  ++++++        ++++++  ",
"  +     ++    ++     +  ",
"  +       ++++       +  ",
"+++        ++        +++",
"+ +        ++        + +",
"+ +        ++        + +",
"+ +        ++        + +",
"+ +        ++        + +",
"+ +        ++        + +",
"+ +        ++        + +",
"+ +        ++        + +",
"+ +        ++        + +",
"+ +        ++        + +",
"+ +        ++        + +",
"+ +        ++        + +",
"+ +        ++        + +",
"+ +        ++        + +",
"+ +++++    ++    +++++ +",
"+      ++++++++++      +",
"+          ++          +",
"+                      +",
" ++++++++++  ++++++++++ ",
"          ++++          "};
