/* XPM */
static char * plus_xpm[] = {
"24 24 16 1",
" 	c None",
".	c #47704C",
"+	c #303030",
"@	c #303030",
"#	c #303030",
"$	c #303030",
"%	c #303030",
"&	c #303030",
"*	c #303030",
"=	c #303030",
"-	c #303030",
";	c #303030",
">	c #303030",
",	c #303030",
"'	c #303030",
")	c #303030",
"          ++++          ",
"         ++++++         ",
"        ++    ++        ",
"        ++    ++        ",
"        ++    ++        ",
"        ++    ++        ",
"        ++    ++        ",
"        ++    ++        ",
"  ++++++++    ++++++++  ",
" +++++++++    +++++++++ ",
"++                    ++",
"++                    ++",
"++                    ++",
"++                    ++",
" +++++++++    +++++++++ ",
"  ++++++++    ++++++++  ",
"        ++    ++        ",
"        ++    ++        ",
"        ++    ++        ",
"        ++    ++        ",
"        ++    ++        ",
"        ++    ++        ",
"         ++++++         ",
"          ++++          "};
