/* XPM */
static char * science_svgrepo_com_xpm[] = {
"24 24 2 1",
" 	c None",
".	c #000000",
"                        ",
"                        ",
"           ..           ",
"          . ..          ",
"         ..  ..         ",
"         .    .         ",
"    ......    ......    ",
"   ..   ........   ..   ",
"   .    . ......    .   ",
"    .   ...  ...   .    ",
"    .. ..   .  .. ..    ",
"     ....  ... ....     ",
"     .... .... ....     ",
"    .. ..  ..  .. ..    ",
"    .   ...  ...   .    ",
"   .    ........    .   ",
"   ..   ........   ..   ",
"    ......    ......    ",
"         .    .         ",
"         ..  ..         ",
"          ....          ",
"           ..           ",
"                        ",
"                        "};
