/* XPM */
static char * Chrisbanks2_Cold_Fusion_Hd_Wikipedia_128_xpm[] = {
"24 24 257 2",
"  	c None",
". 	c #47704C",
"+ 	c #000000",
"@ 	c #000000",
"# 	c #000000",
"$ 	c #000000",
"% 	c #000000",
"& 	c #000000",
"* 	c #000000",
"= 	c #000000",
"- 	c #000000",
"; 	c #262626",
"> 	c #000000",
", 	c #000000",
"' 	c #2B2B2B",
") 	c #000000",
"! 	c #232323",
"~ 	c #000000",
"{ 	c #000000",
"] 	c #000000",
"^ 	c #000000",
"/ 	c #000000",
"( 	c #000000",
"_ 	c #000000",
": 	c #000000",
"< 	c #000000",
"[ 	c #000000",
"} 	c #020202",
"| 	c #000000",
"1 	c #000000",
"2 	c #000000",
"3 	c #000000",
"4 	c #000000",
"5 	c #F7F7F7",
"6 	c #050505",
"7 	c #000000",
"8 	c #010101",
"9 	c #000000",
"0 	c #222222",
"a 	c #060606",
"b 	c #050505",
"c 	c #000000",
"d 	c #000000",
"e 	c #000000",
"f 	c #000000",
"g 	c #000000",
"h 	c #000000",
"i 	c #F5F6F5",
"j 	c #E9E9E9",
"k 	c #000000",
"l 	c #000000",
"m 	c #BFC1BF",
"n 	c #000000",
"o 	c #050505",
"p 	c #000000",
"q 	c #EEEEEE",
"r 	c #F3F3F3",
"s 	c #D3D4D3",
"t 	c #CDCDCD",
"u 	c #DDDDDD",
"v 	c #FEFEFE",
"w 	c #AFAFAF",
"x 	c #3F3F3F",
"y 	c #E7E8E7",
"z 	c #424242",
"A 	c #888888",
"B 	c #323332",
"C 	c #DBDBDB",
"D 	c #979797",
"E 	c #1D1D1D",
"F 	c #929392",
"G 	c #D8D8D8",
"H 	c #656565",
"I 	c #000000",
"J 	c #D0D0D0",
"K 	c #4F4F4F",
"L 	c #CCCCCC",
"M 	c #E2E2E2",
"N 	c #C7C7C7",
"O 	c #C9CAC9",
"P 	c #4B4B4B",
"Q 	c #676767",
"R 	c #B6B7B6",
"S 	c #C8CBC8",
"T 	c #E4E4E4",
"U 	c #EFEFEF",
"V 	c #B2B3B2",
"W 	c #646464",
"X 	c #E7E7E7",
"Y 	c #8A8A8A",
"Z 	c #FBFBFB",
"` 	c #2E2E2E",
" .	c #363636",
"..	c #5F5F5F",
"+.	c #585858",
"@.	c #AFAFAF",
"#.	c #F9F9F9",
"$.	c #B9B9B9",
"%.	c #BABBBA",
"&.	c #B0B1B0",
"*.	c #797979",
"=.	c #626262",
"-.	c #707070",
";.	c #00E1E0",
">.	c #000000",
",.	c #E1E1E1",
"'.	c #E0E0E0",
").	c #DFDFDF",
"!.	c #E2E2E2",
"~.	c #FBFCFB",
"{.	c #FFFFFF",
"].	c #FEFEFE",
"^.	c #E3E3E3",
"/.	c #DEDEDE",
"(.	c #F9FAF9",
"_.	c #F8F9F8",
":.	c #FAFCFA",
"<.	c #F6F7F6",
"[.	c #F7F8F7",
"}.	c #F5F6F5",
"|.	c #E6E6E6",
"1.	c #F4F6F4",
"2.	c #E4E4E4",
"3.	c #F3F4F3",
"4.	c #E5E5E5",
"5.	c #DDDDDD",
"6.	c #DCDCDC",
"7.	c #E8E8E8",
"8.	c #F2F3F2",
"9.	c #E7E7E7",
"0.	c #E9E9E9",
"a.	c #EAEAEA",
"b.	c #FCFDFC",
"c.	c #EFF0EF",
"d.	c #FAFBFA",
"e.	c #EBEBEB",
"f.	c #EDEEED",
"g.	c #EEEFEE",
"h.	c #EEEEEE",
"i.	c #F0F1F0",
"j.	c #EDEDED",
"k.	c #F1F2F1",
"l.	c #DBDBDB",
"m.	c #EFEFEF",
"n.	c #ECECEC",
"o.	c #ECEDEC",
"p.	c #EBECEB",
"q.	c #E9EAE9",
"r.	c #E8E9E8",
"s.	c #EAEBEA",
"t.	c #D9D9D9",
"u.	c #E7E8E7",
"v.	c #DADADA",
"w.	c #F2F2F2",
"x.	c #FEFFFE",
"y.	c #F9F9F9",
"z.	c #F8F8F8",
"A.	c #F1F1F1",
"B.	c #E4E5E4",
"C.	c #E6E7E6",
"D.	c #F0F0F0",
"E.	c #E5E6E5",
"F.	c #D8D8D8",
"G.	c #E3E4E3",
"H.	c #F4F5F4",
"I.	c #E2E3E2",
"J.	c #E1E2E1",
"K.	c #E0E1E0",
"L.	c #F7F7F7",
"M.	c #F5F5F5",
"N.	c #F3F3F3",
"O.	c #DEDFDE",
"P.	c #DFE0DF",
"Q.	c #DDDEDD",
"R.	c #D7D7D7",
"S.	c #131313",
"T.	c #090909",
"U.	c #AAAAAA",
"V.	c #050505",
"W.	c #3A3A3A",
"X.	c #D3D4D3",
"Y.	c #DCDDDC",
"Z.	c #101010",
"`.	c #AEAFAE",
" +	c #373737",
".+	c #0C0C0C",
"++	c #070707",
"@+	c #B6B6B6",
"#+	c #929292",
"$+	c #B3B3B3",
"%+	c #1DBCCD",
"&+	c #CFD0CF",
"*+	c #191919",
"=+	c #1C1C1C",
"-+	c #BCBCBC",
";+	c #CDCDCD",
">+	c #C9C9C9",
",+	c #D6D6D6",
"'+	c #BFBFBF",
")+	c #C5C5C5",
"!+	c #2C2C2C",
"~+	c #F6F6F6",
"{+	c #D9DBD9",
"]+	c #333333",
"^+	c #202020",
"/+	c #8D8E8D",
"(+	c #565656",
"_+	c #A3A3A3",
":+	c #B9B9B9",
"<+	c #DBDCDB",
"[+	c #020202",
"}+	c #6B6B6B",
"|+	c #282828",
"1+	c #242424",
"2+	c #414141",
"3+	c #535353",
"4+	c #505050",
"5+	c #9A9A9A",
"6+	c #C1C1C1",
"7+	c #DADBDA",
"8+	c #4C4C4C",
"9+	c #808080",
"0+	c #7B7B7B",
"a+	c #585858",
"b+	c #707070",
"c+	c #8A8B8A",
"d+	c #727272",
"e+	c #484848",
"f+	c #747574",
"g+	c #3D3D3D",
"h+	c #636463",
"i+	c #454545",
"j+	c #888888",
"k+	c #606060",
"l+	c #C4C4C4",
"m+	c #F1F3F1",
"n+	c #A6A6A6",
"o+	c #262626",
"p+	c #222222",
"q+	c #686868",
"r+	c #949594",
"s+	c #343434",
"t+	c #838383",
"u+	c #A0A0A0",
"v+	c #ECEEEC",
"w+	c #D2D2D2",
"x+	c #2F2F2F",
"y+	c #787978",
"z+	c #F9FBF9",
"A+	c #151515",
"B+	c #5D5D5D",
"C+	c #979797",
"D+	c #DADCDA",
"E+	c #F8FAF8",
"F+	c #000000",
"G+	c #DD0000",
"H+	c #47704C",
"                                                ",
"      4.|.T T T T T T T T T T T T T T |.4.      ",
"    ^./.).'.'.'.,.,.,.,.,.,.,.,.'.'.'.)./.^.    ",
"  t.C /.).'.'.,.,.,.M M M M ,.,.,.'.'.)./.C t.  ",
"  v.6./.).'.'.,.,.M M M M M M ,.,.'.'.)./.6.t.  ",
"  ,+C u /.).'.K.,.M M I.^.M M ,.,.'.).O.u C s   ",
"  ,+N U.`.`.`.>+$+&.&.&.t $+&.&.@+N `.`.U.&+s   ",
"  R.t.)+8++ U.'.C 0++ R T v.i+5+6.).u+3+L C ,+  ",
"  R.6.P.R + `.T E.,+^+5+7.C y+T B.^.u+$.'.Y.,+  ",
"  G Q.,.).3++.T X 7./+` Y.5+L X |.'.-.'.,./.,+  ",
"  t.'.^.T U.+ 6+j a.,+A+t+c+a.j 7.$.`.B.^.'.R.  ",
"  C M 4.|.O. .*.s.n.j.A + &+n.e.j *.K.|.4.I.t.  ",
"  u B.X r.q.5+T.,+f.g.m + _+f.o.&+u+q.r.y B.C   ",
"  ).X q.s.e.t.A+r+U q 9+f+ .G.q #+Q.p.s.q.y u   ",
"  J.s.o.j.q g.A |+T l+@+w+8 U.,.r+U q f.o.s.P.  ",
"  T f.c.D.i.A.&+} n+9+g.8.*.W.5+R.A.i.D.c.f.M   ",
"  C.i.k.8.r 3.8.}+6 >+H.H.&+8 0+3.3.r 8.w.i.B.  ",
"  r.3.H.H.i i i 6+y+H.<.<.i d+L i i i H.H.3.C.  ",
"  e.<.[.[.[.[.z.3.X _._._._.B.<.z.[.[.[.[.<.q.  ",
"  J._.(.(.(.(.(.(.(.(.d.d.(.(.(.(.(.(.(.(._.I.  ",
"    _.~.~.~.~.~.~.~.~.~.~.~.~.~.~.~.~.~.~._.    ",
"    -+i b.b.b.b.b.b.b.b.b.b.b.b.b.b.b.b.~+'+    ",
"        @+-+-+-+-+-+-+-+-+-+-+-+-+-+-+@+        ",
"                                                "};
